<?xml version="1.0" encoding="UTF-8"?>
<svg xmlns="http://www.w3.org/2000/svg" viewBox="0 0 512 512">
  <!-- Background -->
  <rect width="512" height="512" fill="#6b4a2a"/>

  <!-- Cat body -->
  <path d="M256 450 C200 430 180 300 200 200 C220 100 300 100 320 200 C340 300 320 430 256 450Z"
        fill="#000000"/>

  <!-- Tail -->
  <path d="M340 380 Q420 400 400 460 Q370 510 320 470"
        stroke="#000000" stroke-width="20" fill="none"/>

  <!-- Eyes -->
  <ellipse cx="230" cy="180" rx="40" ry="60" fill="#f5e1a4"/>
  <ellipse cx="290" cy="180" rx="40" ry="60" fill="#f5e1a4"/>
  <ellipse cx="230" cy="180" rx="10" ry="30" fill="#000000"/>
  <ellipse cx="290" cy="180" rx="10" ry="30" fill="#000000"/>

  <!-- Ears -->
  <polygon points="200,80 240,20 260,100" fill="#000000"/>
  <polygon points="312,80 272,20 252,100" fill="#000000"/>
  <polygon points="205,80 240,30 250,85" fill="#8b3a2a"/>
  <polygon points="307,80 272,30 262,85" fill="#8b3a2a"/>

  <!-- Whiskers -->
  <line x1="180" y1="200" x2="120" y2="190" stroke="#f5e1a4" stroke-width="4"/>
  <line x1="180" y1="220" x2="120" y2="220" stroke="#f5e1a4" stroke-width="4"/>
  <line x1="180" y1="240" x2="120" y2="250" stroke="#f5e1a4" stroke-width="4"/>

  <line x1="330" y1="200" x2="390" y2="190" stroke="#f5e1a4" stroke-width="4"/>
  <line x1="330" y1="220" x2="390" y2="220" stroke="#f5e1a4" stroke-width="4"/>
  <line x1="330" y1="240" x2="390" y2="250" stroke="#f5e1a4" stroke-width="4"/>

  <!-- Nose & Mouth -->
  <polygon points="250,240 270,240 260,255" fill="#8b3a2a"/>
  <path d="M260 255 Q260 270 250 275" stroke="#8b3a2a" stroke-width="3" fill="none"/>
  <path d="M260 255 Q260 270 270 275" stroke="#8b3a2a" stroke-width="3" fill="none"/>
</svg>
