<svg xmlns="http://www.w3.org/2000/svg" width="64" height="64" viewBox="0 0 64 64" fill="none">
  <rect width="64" height="64" rx="12" fill="black" />
  <g transform="translate(8,10)" fill="white">
    <path d="M24 12c6.627 0 12 5.373 12 12v4c4 2 8 6 8 12 0 8-8 10-20 10S4 48 4 40c0-6 4-10 8-12v-4c0-6.627 5.373-12 12-12z" fill="#0f172a"/>
    <path d="M24 12c6.627 0 12 5.373 12 12v4c4 2 8 6 8 12 0 8-8 10-20 10S4 48 4 40c0-6 4-10 8-12v-4c0-6.627 5.373-12 12-12z" fill="currentColor" fill-opacity="0.9"/>
    <circle cx="18" cy="28" r="2.5" fill="#a78bfa"/>
    <circle cx="30" cy="28" r="2.5" fill="#a78bfa"/>
    <path d="M16 6l6 4V4l-6 2zM32 6l-6 4V4l6 2z" fill="currentColor"/>
    <path d="M20 36c2 1 6 1 8 0" stroke="#a78bfa" stroke-width="2" stroke-linecap="round"/>
  </g>
</svg>
