<svg xmlns="http://www.w3.org/2000/svg" viewBox="0 0 280 50" width="280" height="50">
  <defs>
    <linearGradient id="fingerprintGradient" x1="0%" y1="0%" x2="100%" y2="100%">
      <stop offset="0%" style="stop-color:#ff4444;stop-opacity:1" />
      <stop offset="50%" style="stop-color:#ff2222;stop-opacity:1" />
      <stop offset="100%" style="stop-color:#cc0000;stop-opacity:1" />
    </linearGradient>
  </defs>
  
  <!-- Fingerprint icon -->
  <g transform="translate(5, 8)">
    <!-- Outer fingerprint lines -->
    <path d="M17 5 C25 5 32 12 32 20 C32 28 25 35 17 35 C9 35 2 28 2 20 C2 12 9 5 17 5" 
          fill="none" stroke="url(#fingerprintGradient)" stroke-width="2" stroke-linecap="round"/>
    <path d="M17 8 C23 8 28 13 28 20 C28 27 23 32 17 32 C11 32 6 27 6 20 C6 13 11 8 17 8" 
          fill="none" stroke="url(#fingerprintGradient)" stroke-width="2" stroke-linecap="round"/>
    <path d="M17 11 C21 11 24 14 24 20 C24 26 21 29 17 29 C13 29 10 26 10 20 C10 14 13 11 17 11" 
          fill="none" stroke="url(#fingerprintGradient)" stroke-width="2" stroke-linecap="round"/>
    <path d="M17 14 C19 14 20 16 20 20 C20 24 19 26 17 26 C15 26 14 24 14 20 C14 16 15 14 17 14" 
          fill="none" stroke="url(#fingerprintGradient)" stroke-width="2" stroke-linecap="round"/>
    <!-- Center dot -->
    <circle cx="17" cy="20" r="2" fill="url(#fingerprintGradient)"/>
  </g>
  
  <!-- Company name -->
  <text x="50" y="32" font-family="Arial, Helvetica, sans-serif" font-size="24" font-weight="bold" fill="#2d3748" letter-spacing="-0.5px">
    Traceremove
  </text>
</svg>
