<svg width="20" height="20" viewBox="0 0 24 24" fill="currentColor">
                    <path d="M12 0C5.374 0 0 5.373 0 12s5.374 12 12 12 12-5.373 12-12S18.626 0 12 0zm5.568 8.16c-.169 1.858-.896 6.728-.896 6.728-.377 2.655-.377 2.655-1.377 2.655-.896 0-1.377-.896-1.377-.896s-2.655-1.858-3.551-2.655c-.896-.797-.896-1.377 0-2.274.896-.896 2.655-2.655 3.551-3.551.377-.377.377-.896 0-.896-.377 0-4.447 2.655-5.343 3.174-.896.519-1.377.519-1.858 0-.481-.519-1.377-1.377-2.274-1.858-.896-.481-.896-1.377 0-1.858.896-.481 8.96-3.551 8.96-3.551s1.858-.896 1.858.377z"></path>
                </svg>
